<mxfile host="drawio-plugin" modified="2023-01-31T20:02:16.115Z" agent="5.0 (X11; Linux x86_64) AppleWebKit/537.36 (KHTML, like Gecko) Chrome/89.0.4389.114 Safari/537.36" etag="lff7eSkbFVTvApaiZvaB" version="15.5.4" type="embed"><diagram id="hoXTIeuxyajS8FUdaNJj" name="Page-1"><mxGraphModel dx="2483" dy="1040" grid="1" gridSize="10" guides="1" tooltips="1" connect="1" arrows="1" fold="1" page="1" pageScale="1" pageWidth="827" pageHeight="1169" math="0" shadow="0"><root><mxCell id="0"/><mxCell id="1" parent="0"/><mxCell id="PF_YLdNMCyZSSpzX2_b8-1" value="" style="shape=image;html=1;verticalAlign=top;verticalLabelPosition=bottom;labelBackgroundColor=#ffffff;imageAspect=0;aspect=fixed;image=https://cdn4.iconfinder.com/data/icons/Isloo_icons_by_IconFinder/128/light_bulb.png;fontSize=12;fontColor=#000000;rounded=0;" parent="1" vertex="1"><mxGeometry x="80" y="200" width="120" height="120" as="geometry"/></mxCell><mxCell id="PF_YLdNMCyZSSpzX2_b8-2" value="Object" style="text;html=1;resizable=0;points=[];autosize=1;align=center;verticalAlign=top;spacingTop=-4;fontSize=18;fontStyle=1;rounded=0;" parent="1" vertex="1"><mxGeometry x="104.99999999999994" y="320" width="70" height="20" as="geometry"/></mxCell><mxCell id="PF_YLdNMCyZSSpzX2_b8-3" value="" style="shape=image;verticalLabelPosition=bottom;labelBackgroundColor=#ffffff;verticalAlign=top;aspect=fixed;imageAspect=0;image=http://www.playmedia.it/loghi/smartphone-android-icon.png;rounded=0;" parent="1" vertex="1"><mxGeometry x="600" y="200" width="120" height="120" as="geometry"/></mxCell><mxCell id="PF_YLdNMCyZSSpzX2_b8-4" value="Service" style="text;html=1;resizable=0;points=[];autosize=1;align=center;verticalAlign=top;spacingTop=-4;fontSize=18;fontStyle=1;rounded=0;" parent="1" vertex="1"><mxGeometry x="620" y="320" width="80" height="20" as="geometry"/></mxCell><mxCell id="PF_YLdNMCyZSSpzX2_b8-5" style="rounded=0;html=1;jettySize=auto;orthogonalLoop=1;strokeColor=#ABABAB;strokeWidth=3;fontSize=15;fontColor=#808080;startArrow=classic;startFill=1;opacity=50;dashed=1;" parent="1" source="PF_YLdNMCyZSSpzX2_b8-3" target="PF_YLdNMCyZSSpzX2_b8-1" edge="1"><mxGeometry x="96" y="40" as="geometry"><mxPoint x="336" y="334.4000000000001" as="sourcePoint"/><mxPoint x="216" y="263.5999999999999" as="targetPoint"/></mxGeometry></mxCell><mxCell id="PF_YLdNMCyZSSpzX2_b8-6" value="" style="perimeter=ellipsePerimeter;html=1;align=center;shadow=0;dashed=0;spacingTop=3;image;image=img/lib/active_directory/internet_cloud.svg;fontSize=12;fontColor=#000000;aspect=fixed;rounded=0;" parent="1" vertex="1"><mxGeometry x="340" y="40" width="120" height="75" as="geometry"/></mxCell><mxCell id="PF_YLdNMCyZSSpzX2_b8-7" style="rounded=0;html=1;jettySize=auto;orthogonalLoop=1;strokeColor=#ABABAB;strokeWidth=3;fontSize=15;fontColor=#808080;startArrow=classic;startFill=1;opacity=50;dashed=1;endSize=6;sourcePerimeterSpacing=12;" parent="1" source="PF_YLdNMCyZSSpzX2_b8-6" target="PF_YLdNMCyZSSpzX2_b8-1" edge="1"><mxGeometry x="96" y="40" as="geometry"><mxPoint x="536" y="240" as="sourcePoint"/><mxPoint x="216" y="240" as="targetPoint"/></mxGeometry></mxCell><mxCell id="PF_YLdNMCyZSSpzX2_b8-8" style="rounded=0;html=1;jettySize=auto;orthogonalLoop=1;strokeColor=#ABABAB;strokeWidth=3;fontSize=15;fontColor=#808080;startArrow=classic;startFill=1;opacity=50;dashed=1;sourcePerimeterSpacing=0;targetPerimeterSpacing=10;" parent="1" source="PF_YLdNMCyZSSpzX2_b8-3" target="PF_YLdNMCyZSSpzX2_b8-6" edge="1"><mxGeometry x="96" y="40" as="geometry"><mxPoint x="546" y="250" as="sourcePoint"/><mxPoint x="226" y="250" as="targetPoint"/></mxGeometry></mxCell><mxCell id="PF_YLdNMCyZSSpzX2_b8-9" value="Cloud" style="text;html=1;resizable=0;points=[];autosize=1;align=center;verticalAlign=top;spacingTop=-4;fontSize=18;fontStyle=1;rounded=0;" parent="1" vertex="1"><mxGeometry x="365" y="20" width="70" height="20" as="geometry"/></mxCell><mxCell id="PF_YLdNMCyZSSpzX2_b8-10" value="&lt;font face=&quot;Courier New&quot; style=&quot;font-weight: normal; font-size: 14px;&quot;&gt;Direct&lt;br style=&quot;font-size: 14px;&quot;&gt;Communication&lt;/font&gt;" style="text;html=1;resizable=0;points=[];autosize=1;align=center;verticalAlign=top;spacingTop=-4;fontSize=14;fontStyle=1;fontColor=#808080;rounded=0;" parent="1" vertex="1"><mxGeometry x="340" y="260" width="120" height="40" as="geometry"/></mxCell><mxCell id="PF_YLdNMCyZSSpzX2_b8-11" value="&lt;font face=&quot;Courier New&quot; style=&quot;font-weight: normal; font-size: 14px;&quot;&gt;Cloud&lt;br style=&quot;font-size: 14px;&quot;&gt;Communication&lt;/font&gt;" style="text;html=1;resizable=0;points=[];autosize=1;align=center;verticalAlign=top;spacingTop=-4;fontSize=14;fontStyle=1;fontColor=#808080;rounded=0;" parent="1" vertex="1"><mxGeometry x="340.05000000000007" y="120" width="120" height="40" as="geometry"/></mxCell><mxCell id="PF_YLdNMCyZSSpzX2_b8-13" value="" style="shape=image;html=1;verticalAlign=top;verticalLabelPosition=bottom;labelBackgroundColor=#ffffff;imageAspect=0;aspect=fixed;image=https://cdn4.iconfinder.com/data/icons/Isloo_icons_by_IconFinder/128/light_bulb.png;fontSize=12;fontColor=#000000;rounded=0;" parent="1" vertex="1"><mxGeometry x="160" y="760" width="80" height="80.01" as="geometry"/></mxCell><mxCell id="PF_YLdNMCyZSSpzX2_b8-14" value="" style="shape=image;verticalLabelPosition=bottom;labelBackgroundColor=#ffffff;verticalAlign=top;aspect=fixed;imageAspect=0;image=http://www.playmedia.it/loghi/smartphone-android-icon.png;rounded=0;" parent="1" vertex="1"><mxGeometry x="160" y="560" width="80" height="80.01" as="geometry"/></mxCell><mxCell id="PF_YLdNMCyZSSpzX2_b8-15" style="rounded=0;html=1;jettySize=auto;orthogonalLoop=1;strokeColor=#ABABAB;strokeWidth=3;fontSize=15;fontColor=#808080;startArrow=classic;startFill=1;opacity=50;dashed=1;" parent="1" source="PF_YLdNMCyZSSpzX2_b8-14" target="PF_YLdNMCyZSSpzX2_b8-13" edge="1"><mxGeometry x="205.47000000000003" y="650.95" as="geometry"><mxPoint x="445.47000000000025" y="945.3500000000001" as="sourcePoint"/><mxPoint x="325.47" y="874.55" as="targetPoint"/></mxGeometry></mxCell><mxCell id="PF_YLdNMCyZSSpzX2_b8-16" value="" style="shape=image;html=1;verticalAlign=top;verticalLabelPosition=bottom;labelBackgroundColor=#ffffff;imageAspect=0;aspect=fixed;image=https://cdn4.iconfinder.com/data/icons/Isloo_icons_by_IconFinder/128/light_bulb.png;fontSize=12;fontColor=#000000;rounded=0;" parent="1" vertex="1"><mxGeometry x="1280" y="760.01" width="80" height="80.01" as="geometry"/></mxCell><mxCell id="PF_YLdNMCyZSSpzX2_b8-17" value="" style="shape=image;verticalLabelPosition=bottom;labelBackgroundColor=#ffffff;verticalAlign=top;aspect=fixed;imageAspect=0;image=http://www.playmedia.it/loghi/smartphone-android-icon.png;rounded=0;" parent="1" vertex="1"><mxGeometry x="1280" y="560.01" width="80" height="80.01" as="geometry"/></mxCell><mxCell id="PF_YLdNMCyZSSpzX2_b8-18" value="" style="perimeter=ellipsePerimeter;html=1;align=center;shadow=0;dashed=0;spacingTop=3;image;image=img/lib/active_directory/internet_cloud.svg;fontSize=12;fontColor=#000000;aspect=fixed;rounded=0;" parent="1" vertex="1"><mxGeometry x="1200" y="670.02" width="79.05" height="49.41" as="geometry"/></mxCell><mxCell id="PF_YLdNMCyZSSpzX2_b8-19" style="rounded=0;html=1;jettySize=auto;orthogonalLoop=1;strokeColor=#ABABAB;strokeWidth=3;fontSize=15;fontColor=#808080;startArrow=classic;startFill=1;opacity=50;dashed=1;endSize=6;sourcePerimeterSpacing=12;" parent="1" source="PF_YLdNMCyZSSpzX2_b8-18" target="PF_YLdNMCyZSSpzX2_b8-16" edge="1"><mxGeometry x="1370.4699999999998" y="619.0799999999999" as="geometry"><mxPoint x="1810.4699999999998" y="819.0799999999999" as="sourcePoint"/><mxPoint x="1490.4699999999998" y="819.0799999999999" as="targetPoint"/></mxGeometry></mxCell><mxCell id="PF_YLdNMCyZSSpzX2_b8-20" style="rounded=0;html=1;jettySize=auto;orthogonalLoop=1;strokeColor=#ABABAB;strokeWidth=3;fontSize=15;fontColor=#808080;startArrow=classic;startFill=1;opacity=50;dashed=1;sourcePerimeterSpacing=0;targetPerimeterSpacing=10;" parent="1" source="PF_YLdNMCyZSSpzX2_b8-17" target="PF_YLdNMCyZSSpzX2_b8-18" edge="1"><mxGeometry x="1370.4699999999998" y="619.0799999999999" as="geometry"><mxPoint x="1820.4699999999998" y="829.0799999999999" as="sourcePoint"/><mxPoint x="1500.4699999999998" y="829.0799999999999" as="targetPoint"/></mxGeometry></mxCell><mxCell id="PF_YLdNMCyZSSpzX2_b8-21" value="" style="shape=image;html=1;verticalAlign=top;verticalLabelPosition=bottom;labelBackgroundColor=#ffffff;imageAspect=0;aspect=fixed;image=https://cdn4.iconfinder.com/data/icons/Isloo_icons_by_IconFinder/128/light_bulb.png;fontSize=12;fontColor=#000000;rounded=0;" parent="1" vertex="1"><mxGeometry x="440" y="760" width="80" height="80.01" as="geometry"/></mxCell><mxCell id="PF_YLdNMCyZSSpzX2_b8-22" value="" style="shape=image;verticalLabelPosition=bottom;labelBackgroundColor=#ffffff;verticalAlign=top;aspect=fixed;imageAspect=0;image=http://www.playmedia.it/loghi/smartphone-android-icon.png;rounded=0;" parent="1" vertex="1"><mxGeometry x="520" y="560.01" width="80" height="80.01" as="geometry"/></mxCell><mxCell id="PF_YLdNMCyZSSpzX2_b8-23" style="rounded=0;html=1;jettySize=auto;orthogonalLoop=1;strokeColor=#ABABAB;strokeWidth=3;fontSize=15;fontColor=#808080;startArrow=classic;startFill=1;opacity=50;dashed=1;" parent="1" source="PF_YLdNMCyZSSpzX2_b8-22" target="PF_YLdNMCyZSSpzX2_b8-21" edge="1"><mxGeometry x="535" y="650.01" as="geometry"><mxPoint x="775" y="944.4100000000001" as="sourcePoint"/><mxPoint x="655" y="873.6099999999999" as="targetPoint"/></mxGeometry></mxCell><mxCell id="PF_YLdNMCyZSSpzX2_b8-24" value="" style="shape=image;html=1;verticalAlign=top;verticalLabelPosition=bottom;labelBackgroundColor=#ffffff;imageAspect=0;aspect=fixed;image=https://cdn4.iconfinder.com/data/icons/Isloo_icons_by_IconFinder/128/light_bulb.png;fontSize=12;fontColor=#000000;rounded=0;" parent="1" vertex="1"><mxGeometry x="600" y="760" width="80" height="80.01" as="geometry"/></mxCell><mxCell id="PF_YLdNMCyZSSpzX2_b8-25" style="rounded=0;html=1;jettySize=auto;orthogonalLoop=1;strokeColor=#ABABAB;strokeWidth=3;fontSize=15;fontColor=#808080;startArrow=classic;startFill=1;opacity=50;dashed=1;" parent="1" source="PF_YLdNMCyZSSpzX2_b8-22" target="PF_YLdNMCyZSSpzX2_b8-24" edge="1"><mxGeometry x="615" y="650.01" as="geometry"><mxPoint x="649.5275000000001" y="639.0699999999999" as="sourcePoint"/><mxPoint x="735" y="873.6099999999999" as="targetPoint"/></mxGeometry></mxCell><mxCell id="PF_YLdNMCyZSSpzX2_b8-26" value="" style="shape=image;verticalLabelPosition=bottom;labelBackgroundColor=#ffffff;verticalAlign=top;aspect=fixed;imageAspect=0;image=http://www.playmedia.it/loghi/smartphone-android-icon.png;rounded=0;" parent="1" vertex="1"><mxGeometry x="800" y="560.01" width="80" height="80.01" as="geometry"/></mxCell><mxCell id="PF_YLdNMCyZSSpzX2_b8-27" style="rounded=0;html=1;jettySize=auto;orthogonalLoop=1;strokeColor=#ABABAB;strokeWidth=3;fontSize=15;fontColor=#808080;startArrow=classic;startFill=1;opacity=50;dashed=1;" parent="1" source="PF_YLdNMCyZSSpzX2_b8-26" target="PF_YLdNMCyZSSpzX2_b8-28" edge="1"><mxGeometry x="775" y="650.95" as="geometry"><mxPoint x="1015" y="945.3500000000001" as="sourcePoint"/><mxPoint x="895" y="874.55" as="targetPoint"/></mxGeometry></mxCell><mxCell id="PF_YLdNMCyZSSpzX2_b8-28" value="" style="shape=image;html=1;verticalAlign=top;verticalLabelPosition=bottom;labelBackgroundColor=#ffffff;imageAspect=0;aspect=fixed;image=https://cdn4.iconfinder.com/data/icons/Isloo_icons_by_IconFinder/128/light_bulb.png;fontSize=12;fontColor=#000000;rounded=0;" parent="1" vertex="1"><mxGeometry x="880.0000000000005" y="760" width="80" height="80.01" as="geometry"/></mxCell><mxCell id="PF_YLdNMCyZSSpzX2_b8-29" value="" style="shape=image;verticalLabelPosition=bottom;labelBackgroundColor=#ffffff;verticalAlign=top;aspect=fixed;imageAspect=0;image=http://www.playmedia.it/loghi/smartphone-android-icon.png;rounded=0;" parent="1" vertex="1"><mxGeometry x="960" y="560.01" width="80" height="80.01" as="geometry"/></mxCell><mxCell id="PF_YLdNMCyZSSpzX2_b8-30" style="rounded=0;html=1;jettySize=auto;orthogonalLoop=1;strokeColor=#ABABAB;strokeWidth=3;fontSize=15;fontColor=#808080;startArrow=classic;startFill=1;opacity=50;dashed=1;" parent="1" source="PF_YLdNMCyZSSpzX2_b8-29" target="PF_YLdNMCyZSSpzX2_b8-28" edge="1"><mxGeometry x="855" y="650.95" as="geometry"><mxPoint x="1095" y="945.3500000000001" as="sourcePoint"/><mxPoint x="975" y="874.55" as="targetPoint"/></mxGeometry></mxCell><mxCell id="PF_YLdNMCyZSSpzX2_b8-31" value="&lt;span style=&quot;font-weight: 700&quot;&gt;&lt;font style=&quot;font-size: 25px&quot;&gt;One App&lt;/font&gt;&lt;/span&gt;&lt;br style=&quot;font-size: 18px ; font-weight: 700&quot;&gt;&lt;font style=&quot;font-size: 20px&quot;&gt;&lt;font color=&quot;#4d4d4d&quot;&gt;Object manufacturer provide his own mobile app to interact&amp;nbsp;&lt;span&gt;with the connected object.&lt;/span&gt;&lt;/font&gt;&lt;br&gt;&lt;/font&gt;" style="text;html=1;strokeColor=none;fillColor=none;align=center;verticalAlign=top;whiteSpace=wrap;rounded=0;fontSize=14;fontColor=#000000;" parent="1" vertex="1"><mxGeometry x="40" y="880.01" width="320" height="160" as="geometry"/></mxCell><mxCell id="PF_YLdNMCyZSSpzX2_b8-32" value="&lt;span style=&quot;font-weight: 700&quot;&gt;&lt;font style=&quot;font-size: 25px&quot;&gt;Orchestration Services&lt;/font&gt;&lt;/span&gt;&lt;br style=&quot;font-size: 18px ; font-weight: 700&quot;&gt;&lt;font style=&quot;font-size: 20px&quot; color=&quot;#4d4d4d&quot;&gt;A single service can interact with multiple objects to coordinate them for a common purpose.&lt;/font&gt;" style="text;html=1;strokeColor=none;fillColor=none;align=center;verticalAlign=top;whiteSpace=wrap;rounded=0;fontSize=14;fontColor=#000000;" parent="1" vertex="1"><mxGeometry x="400" y="880.01" width="320" height="120" as="geometry"/></mxCell><mxCell id="PF_YLdNMCyZSSpzX2_b8-33" value="&lt;b&gt;&lt;font style=&quot;font-size: 25px&quot;&gt;Shared Objects&lt;/font&gt;&lt;/b&gt;&lt;br style=&quot;font-size: 18px ; font-weight: 700&quot;&gt;&lt;font style=&quot;font-size: 20px&quot; color=&quot;#4d4d4d&quot;&gt;An object can be used by many service at the same time.&lt;br&gt;&lt;/font&gt;" style="text;html=1;strokeColor=none;fillColor=none;align=center;verticalAlign=top;whiteSpace=wrap;rounded=0;fontSize=14;fontColor=#000000;" parent="1" vertex="1"><mxGeometry x="760" y="880.01" width="320" height="120" as="geometry"/></mxCell><mxCell id="PF_YLdNMCyZSSpzX2_b8-34" value="&lt;span style=&quot;font-weight: 700&quot;&gt;&lt;font style=&quot;font-size: 25px&quot;&gt;Cloud as transparent GW&lt;/font&gt;&lt;/span&gt;&lt;br style=&quot;font-size: 18px ; font-weight: 700&quot;&gt;&lt;font style=&quot;font-size: 20px&quot; color=&quot;#4d4d4d&quot;&gt;Communication between objects and services can be direct or via cloud. That did not alter how services can interact with objects.&lt;/font&gt;" style="text;html=1;strokeColor=none;fillColor=none;align=center;verticalAlign=top;whiteSpace=wrap;rounded=0;fontSize=14;fontColor=#000000;" parent="1" vertex="1"><mxGeometry x="1120" y="880.01" width="320" height="120" as="geometry"/></mxCell><mxCell id="PF_YLdNMCyZSSpzX2_b8-35" value="" style="shape=image;html=1;verticalAlign=top;verticalLabelPosition=bottom;labelBackgroundColor=#ffffff;imageAspect=0;aspect=fixed;image=https://cdn4.iconfinder.com/data/icons/Isloo_icons_by_IconFinder/128/light_bulb.png;fontSize=12;fontColor=#000000;rounded=0;" parent="1" vertex="1"><mxGeometry x="80" y="1280" width="120" height="120" as="geometry"/></mxCell><mxCell id="PF_YLdNMCyZSSpzX2_b8-36" value="JOD" style="text;html=1;resizable=0;points=[];autosize=1;align=center;verticalAlign=top;spacingTop=-4;fontSize=18;fontStyle=1;rounded=0;" parent="1" vertex="1"><mxGeometry x="114.99999999999994" y="1400" width="50" height="20" as="geometry"/></mxCell><mxCell id="PF_YLdNMCyZSSpzX2_b8-37" value="" style="shape=image;verticalLabelPosition=bottom;labelBackgroundColor=#ffffff;verticalAlign=top;aspect=fixed;imageAspect=0;image=http://www.playmedia.it/loghi/smartphone-android-icon.png;rounded=0;" parent="1" vertex="1"><mxGeometry x="600" y="1280" width="120" height="120" as="geometry"/></mxCell><mxCell id="PF_YLdNMCyZSSpzX2_b8-38" value="JSL Service" style="text;html=1;resizable=0;points=[];autosize=1;align=center;verticalAlign=top;spacingTop=-4;fontSize=18;fontStyle=1;rounded=0;" parent="1" vertex="1"><mxGeometry x="600" y="1400" width="120" height="20" as="geometry"/></mxCell><mxCell id="PF_YLdNMCyZSSpzX2_b8-39" style="rounded=0;html=1;jettySize=auto;orthogonalLoop=1;strokeColor=#ABABAB;strokeWidth=3;fontSize=15;fontColor=#808080;startArrow=classic;startFill=1;opacity=50;dashed=1;" parent="1" source="PF_YLdNMCyZSSpzX2_b8-37" target="PF_YLdNMCyZSSpzX2_b8-35" edge="1"><mxGeometry x="96" y="1120" as="geometry"><mxPoint x="336" y="1414.4" as="sourcePoint"/><mxPoint x="216" y="1343.6" as="targetPoint"/></mxGeometry></mxCell><mxCell id="PF_YLdNMCyZSSpzX2_b8-40" value="&lt;font face=&quot;Courier New&quot; style=&quot;font-weight: normal; font-size: 14px;&quot;&gt;Direct&lt;br style=&quot;font-size: 14px;&quot;&gt;Communication&lt;/font&gt;" style="text;html=1;resizable=0;points=[];autosize=1;align=center;verticalAlign=top;spacingTop=-4;fontSize=14;fontStyle=1;fontColor=#808080;rounded=0;" parent="1" vertex="1"><mxGeometry x="340" y="1340" width="120" height="40" as="geometry"/></mxCell><mxCell id="2" value="" style="shape=image;html=1;verticalAlign=top;verticalLabelPosition=bottom;labelBackgroundColor=#ffffff;imageAspect=0;aspect=fixed;image=https://cdn4.iconfinder.com/data/icons/Isloo_icons_by_IconFinder/128/light_bulb.png;fontSize=12;fontColor=#000000;rounded=0;" vertex="1" parent="1"><mxGeometry x="360.0000000000001" y="1720" width="120" height="120" as="geometry"/></mxCell><mxCell id="3" value="Maker" style="text;html=1;resizable=0;points=[];autosize=1;align=center;verticalAlign=top;spacingTop=-4;fontSize=18;fontStyle=1;rounded=0;" vertex="1" parent="1"><mxGeometry x="175.0000000000001" y="2090" width="70" height="20" as="geometry"/></mxCell><mxCell id="4" value="" style="shape=image;verticalLabelPosition=bottom;labelBackgroundColor=#ffffff;verticalAlign=top;aspect=fixed;imageAspect=0;image=http://www.playmedia.it/loghi/smartphone-android-icon.png;rounded=0;" vertex="1" parent="1"><mxGeometry x="880.0000000000001" y="1720" width="120" height="120" as="geometry"/></mxCell><mxCell id="5" value="Service" style="text;html=1;resizable=0;points=[];autosize=1;align=center;verticalAlign=top;spacingTop=-4;fontSize=18;fontStyle=1;rounded=0;" vertex="1" parent="1"><mxGeometry x="900.0000000000001" y="1840" width="80" height="20" as="geometry"/></mxCell><mxCell id="6" value="" style="verticalLabelPosition=bottom;sketch=0;html=1;fillColor=#B9E0A5;verticalAlign=top;align=center;pointerEvents=1;shape=mxgraph.cisco_safe.design.actor_2;fontSize=20;fontColor=#4D4D4D;" vertex="1" parent="1"><mxGeometry x="180.0000000000001" y="1960" width="60" height="120" as="geometry"/></mxCell><mxCell id="7" value="" style="verticalLabelPosition=bottom;sketch=0;html=1;fillColor=#A153A0;verticalAlign=top;align=center;pointerEvents=1;shape=mxgraph.cisco_safe.design.actor_2;fontSize=20;fontColor=#4D4D4D;" vertex="1" parent="1"><mxGeometry x="650.0000000000001" y="1959.99" width="60" height="120" as="geometry"/></mxCell><mxCell id="8" value="" style="verticalLabelPosition=bottom;sketch=0;html=1;fillColor=#FFB570;verticalAlign=top;align=center;pointerEvents=1;shape=mxgraph.cisco_safe.design.actor_2;fontSize=20;fontColor=#4D4D4D;" vertex="1" parent="1"><mxGeometry x="1120" y="1960" width="60" height="120" as="geometry"/></mxCell><mxCell id="9" value="End User" style="text;html=1;resizable=0;points=[];autosize=1;align=center;verticalAlign=top;spacingTop=-4;fontSize=18;fontStyle=1;rounded=0;" vertex="1" parent="1"><mxGeometry x="635.0000000000001" y="2090" width="90" height="20" as="geometry"/></mxCell><mxCell id="10" value="Developer" style="text;html=1;resizable=0;points=[];autosize=1;align=center;verticalAlign=top;spacingTop=-4;fontSize=18;fontStyle=1;rounded=0;" vertex="1" parent="1"><mxGeometry x="1100" y="2090" width="100" height="20" as="geometry"/></mxCell><mxCell id="11" style="rounded=0;html=1;jettySize=auto;orthogonalLoop=1;strokeColor=#ABABAB;strokeWidth=3;fontSize=15;fontColor=#808080;startArrow=classic;startFill=1;opacity=50;dashed=1;sourcePerimeterSpacing=0;targetPerimeterSpacing=10;" edge="1" parent="1" source="2" target="4"><mxGeometry x="-279.5300000000001" y="1829.07" as="geometry"><mxPoint x="-364.0145457427524" y="1850.01" as="sourcePoint"/><mxPoint x="-385.164391638359" y="1874.8846401452095" as="targetPoint"/></mxGeometry></mxCell><mxCell id="12" style="rounded=0;html=1;jettySize=auto;orthogonalLoop=1;strokeColor=#ABABAB;strokeWidth=3;fontSize=15;fontColor=#808080;startArrow=none;startFill=0;opacity=50;dashed=1;sourcePerimeterSpacing=10;targetPerimeterSpacing=0;dashPattern=1 1;endArrow=open;endFill=0;" edge="1" parent="1" source="6" target="2"><mxGeometry x="-269.5300000000001" y="1839.07" as="geometry"><mxPoint x="-375.164391638359" y="1884.8846401452095" as="sourcePoint"/><mxPoint x="-354.0145457427524" y="1860.01" as="targetPoint"/></mxGeometry></mxCell><mxCell id="13" value="make" style="edgeLabel;html=1;align=center;verticalAlign=middle;resizable=0;points=[];fontSize=14;fontFamily=Courier New;fontColor=#808080;rotation=-45;" vertex="1" connectable="0" parent="12"><mxGeometry relative="1" as="geometry"><mxPoint x="2" y="-28" as="offset"/></mxGeometry></mxCell><mxCell id="14" style="rounded=0;html=1;jettySize=auto;orthogonalLoop=1;strokeColor=#ABABAB;strokeWidth=3;fontSize=15;fontColor=#808080;startArrow=none;startFill=0;opacity=50;dashed=1;sourcePerimeterSpacing=10;targetPerimeterSpacing=0;dashPattern=1 1;endArrow=open;endFill=0;" edge="1" parent="1" source="7" target="2"><mxGeometry x="-259.5300000000001" y="1849.07" as="geometry"><mxPoint x="260.0000000000001" y="1984.2857142857142" as="sourcePoint"/><mxPoint x="377.5000000000001" y="1850" as="targetPoint"/></mxGeometry></mxCell><mxCell id="15" value="use object" style="edgeLabel;html=1;align=center;verticalAlign=middle;resizable=0;points=[];fontSize=14;fontFamily=Courier New;fontColor=#808080;rotation=45;" vertex="1" connectable="0" parent="14"><mxGeometry relative="1" as="geometry"><mxPoint x="-10" y="-29" as="offset"/></mxGeometry></mxCell><mxCell id="16" style="rounded=0;html=1;jettySize=auto;orthogonalLoop=1;strokeColor=#ABABAB;strokeWidth=3;fontSize=15;fontColor=#808080;startArrow=none;startFill=0;opacity=50;dashed=1;sourcePerimeterSpacing=10;targetPerimeterSpacing=0;dashPattern=1 1;endArrow=open;endFill=0;" edge="1" parent="1" source="7" target="4"><mxGeometry x="-249.5300000000001" y="1859.07" as="geometry"><mxPoint x="270.0000000000001" y="1994.2857142857142" as="sourcePoint"/><mxPoint x="387.5000000000001" y="1860" as="targetPoint"/></mxGeometry></mxCell><mxCell id="17" value="use service" style="edgeLabel;html=1;align=center;verticalAlign=middle;resizable=0;points=[];fontSize=14;fontFamily=Courier New;fontColor=#808080;rotation=-45;" vertex="1" connectable="0" parent="16"><mxGeometry relative="1" as="geometry"><mxPoint x="10" y="-29" as="offset"/></mxGeometry></mxCell><mxCell id="18" style="rounded=0;html=1;jettySize=auto;orthogonalLoop=1;strokeColor=#ABABAB;strokeWidth=3;fontSize=15;fontColor=#808080;startArrow=none;startFill=0;opacity=50;dashed=1;sourcePerimeterSpacing=10;targetPerimeterSpacing=0;dashPattern=1 1;endArrow=open;endFill=0;" edge="1" parent="1" source="8" target="4"><mxGeometry x="-239.5300000000001" y="1869.07" as="geometry"><mxPoint x="280.0000000000001" y="2004.2857142857142" as="sourcePoint"/><mxPoint x="397.5000000000001" y="1870" as="targetPoint"/></mxGeometry></mxCell><mxCell id="19" value="develop" style="edgeLabel;html=1;align=center;verticalAlign=middle;resizable=0;points=[];fontSize=14;fontColor=#808080;fontFamily=Courier New;rotation=45;" vertex="1" connectable="0" parent="18"><mxGeometry relative="1" as="geometry"><mxPoint x="-2" y="-28" as="offset"/></mxGeometry></mxCell><mxCell id="20" value="&lt;span style=&quot;font-weight: 700&quot;&gt;&lt;font style=&quot;font-size: 25px&quot;&gt;Maker != Developer&lt;/font&gt;&lt;/span&gt;&lt;br style=&quot;font-size: 18px ; font-weight: 700&quot;&gt;&lt;font style=&quot;font-size: 20px&quot; color=&quot;#4d4d4d&quot;&gt;Not always the maker and developer are the seam person or the same company.&lt;br&gt;In most cases they are different person that never talk.&lt;br&gt;&lt;/font&gt;" style="text;html=1;strokeColor=none;fillColor=none;align=center;verticalAlign=top;whiteSpace=wrap;rounded=0;fontSize=14;fontColor=#000000;" vertex="1" parent="1"><mxGeometry x="80.00000000000011" y="2200" width="1200" height="120" as="geometry"/></mxCell></root></mxGraphModel></diagram></mxfile>